<?xml version="1.0" encoding="utf-8"?><!-- Generator: Adobe Illustrator 28.2.0, SVG Export Plug-In . SVG Version: 6.00 Build 0)  --><svg version="1.1" id="Слой_2" xmlns="http://www.w3.org/2000/svg" xmlns:xlink="http://www.w3.org/1999/xlink" x="0px" y="0px"	 viewBox="0 0 630 630" style="enable-background:new 0 0 630 630;" xml:space="preserve"><style type="text/css">	.st0{fill:#FFFFFF;stroke:#000000;stroke-miterlimit:10;}	.st1{fill:#FFFFFF;}	.st2{fill:#5382A1;}	.st3{fill:#F8981D;}</style>	<rect x="0.3" y="-14.4" class="st0" width="623.6" height="623.6"/>	<rect x="-138.9" y="-121.3" class="st1" width="907.8" height="907.8"/>	<path class="st2" d="M459.9,489.4h-2.3v-1.3h6.2v1.3h-2.3v6.3h-1.6L459.9,489.4L459.9,489.4z M472.1,489.7L472.1,489.7l-2.3,6h-1	l-2.3-6l0,0v6h-1.4v-7.6h2.1l2,5.4l2-5.4h2.1v7.6H472L472.1,489.7L472.1,489.7z"/>	<path class="st2" d="M256.8,333.8c0,0-15.7,9.2,11.3,12.3c32.8,3.7,49.5,3.1,85.6-3.6c0,0,9.4,6,22.8,11.2	C295.4,388.2,193.1,351.6,256.8,333.8"/>	<path class="st2" d="M246.7,288.6c0,0-17.7,13.2,9.3,15.9c34.9,3.6,62.7,3.9,110.5-5.3c0,0,6.6,6.7,17,10.3	C285.8,338.1,176.8,311.8,246.7,288.6"/>	<path class="st3" d="M330.2,211.8c19.9,22.9-5.3,43.6-5.3,43.6s50.7-26.2,27.3-58.8c-21.7-30.5-38.3-45.6,51.8-98	C404,98.6,262.6,133.9,330.2,211.8"/>	<path class="st2" d="M437.2,367.3c0,0,11.7,9.6-12.9,17c-46.6,14.2-194.3,18.5-235.4,0.6c-14.7-6.4,12.9-15.3,21.6-17.2	c9-2,14.3-1.6,14.3-1.6c-16.5-11.6-106,22.8-45.5,32.5C344.2,425.4,480,386.6,437.2,367.3"/>	<path class="st2" d="M264.3,241.7c0,0-75.1,17.9-26.6,24.3c20.5,2.7,61.4,2.1,99.3-1c31.1-2.6,62.2-8.2,62.2-8.2s-11,4.7-18.9,10.2	c-76.3,20-223.6,10.7-181.2-9.7C235.2,239.7,264.3,241.7,264.3,241.7"/>	<path class="st2" d="M399,316.9c77.6-40.4,41.6-79,16.6-73.8c-6.2,1.3-8.9,2.4-8.9,2.4s2.3-3.6,6.6-5.2c49.5-17.5,87.6,51.4-16,78.6	C397.4,319.1,398.7,318,399,316.9"/>	<path class="st3" d="M352.3,14.2c0,0,42.9,42.9-40.8,109c-67.1,52.9-15.3,83.1,0,117.8c-39.2-35.3-68-66.4-48.7-95.4	C291.2,103,369.7,82.4,352.3,14.2"/>	<path class="st2" d="M271.9,426.1c74.4,4.7,188.7-2.6,191.5-37.9c0,0-5.2,13.3-61.5,23.9c-63.5,12-141.9,10.6-188.3,2.9	C213.4,415.1,223,423.1,271.9,426.1"/>	<path class="st2" d="M259.8,560.8c-7,6.2-14.5,9.4-21,9.4c-9.4,0-14.6-5.7-14.6-14.9c0-9.9,5.4-17.2,27.6-17.2h8.2L259.8,560.8	 M279.1,582.7V515c0-17.3-9.9-28.8-33.6-28.8c-13.9,0-26,3.4-35.9,7.7l2.9,12c7.7-2.9,17.9-5.6,27.8-5.6c13.7,0,19.6,5.6,19.6,16.9	v8.6h-6.9c-33.2,0-48.2,12.9-48.2,32.3c0,16.7,9.9,26.2,28.5,26.2c12,0,20.9-5,29.2-12.2l1.6,10.3L279.1,582.7L279.1,582.7z"/>	<path class="st2" d="M343.8,582.7h-24.2l-29-94.6h21l18,58.1l4,17.5c9.2-25.3,15.6-50.9,18.7-75.7h20.5	C367.5,519.1,357.6,553.3,343.8,582.7"/>	<path class="st2" d="M436.5,560.8c-7,6.2-14.5,9.4-21.2,9.4c-9.4,0-14.6-5.7-14.6-14.9c0-9.9,5.6-17.2,27.6-17.2h8.2V560.8	 M455.8,582.7V515c0-17.3-9.9-28.8-33.6-28.8c-13.9,0-26,3.4-35.9,7.7l2.9,12c7.7-2.9,17.9-5.6,27.8-5.6c13.7,0,19.6,5.6,19.6,16.9	v8.6h-6.9c-33.3,0-48.2,12.9-48.2,32.3c0,16.7,9.9,26.2,28.5,26.2c12,0,20.9-5,29.3-12.2l1.6,10.3L455.8,582.7L455.8,582.7z"/>	<path class="st2" d="M183.4,598.7c-5.6,8-14.5,14.5-24.2,18l-9.6-11.3c7.4-3.9,13.9-10,16.7-15.7c2.6-5.2,3.6-11.7,3.6-27.5v-108	h20.6v106.6C190.5,582,188.9,590.4,183.4,598.7"/></svg>